<svg viewBox="0 0 24 24" xmlns="http://www.w3.org/2000/svg" fill-rule="evenodd" clip-rule="evenodd"
    stroke-linejoin="round" stroke-miterlimit="2">
    <path d="M3.102 9.551a1.552 1.552 0 00-3.102 0v4.898a1.552 1.552 0 003.102 0V9.55z" fill="#00a485" />
    <path d="M6.585 5.551a1.552 1.552 0 00-3.102 0V18.45a1.552 1.552 0 003.102 0V5.55z" fill="#6397ae" />
    <path d="M10.068 9.551a1.552 1.552 0 00-3.102 0v4.898a1.552 1.552 0 003.102 0V9.55z" fill="#8b86d6" />
    <path d="M13.55 1.552a1.552 1.552 0 00-3.101 0v20.896a1.552 1.552 0 003.102 0V1.552z" fill="#ab6dff" />
    <path d="M17.034 5.551a1.552 1.552 0 00-3.102 0V18.45a1.552 1.552 0 003.102 0V5.55z" fill="#d166c7" />
    <path d="M20.517 9.551a1.552 1.552 0 00-3.102 0v4.898a1.552 1.552 0 003.102 0V9.55z" fill="#e86190" />
    <path d="M24 5.551a1.552 1.552 0 00-3.102 0V18.45a1.552 1.552 0 003.102 0V5.55z" fill="#f65d5a" />
</svg>