<?xml version="1.0" encoding="UTF-8" standalone="no"?>
<!DOCTYPE svg PUBLIC "-//W3C//DTD SVG 1.1//EN" "http://www.w3.org/Graphics/SVG/1.1/DTD/svg11.dtd">
<svg width="100%" height="100%" viewBox="0 0 24 24" version="1.1" xmlns="http://www.w3.org/2000/svg" xmlns:xlink="http://www.w3.org/1999/xlink" xml:space="preserve" xmlns:serif="http://www.serif.com/" style="fill-rule:evenodd;clip-rule:evenodd;stroke-linejoin:round;stroke-miterlimit:2;">
    <path d="M13.551,1.551C13.551,0.695 12.856,0 12,0C11.144,0 10.449,0.695 10.449,1.551L10.449,22.449C10.449,23.305 11.144,24 12,24C12.856,24 13.551,23.305 13.551,22.449L13.551,1.551Z" style="fill:url(#_Linear1);"/>
    <path d="M13.932,4.416C13.932,3.56 14.627,2.865 15.483,2.865C16.339,2.865 17.034,3.56 17.034,4.416L17.034,19.584C17.034,20.44 16.339,21.135 15.483,21.135C14.627,21.135 13.932,20.44 13.932,19.584L13.932,4.416Z" style="fill:url(#_Linear2);"/>
    <path d="M3.102,5.051C3.102,4.195 2.407,3.5 1.551,3.5C0.695,3.5 0,4.195 0,5.051L0,18.949C0,19.805 0.695,20.5 1.551,20.5C2.407,20.5 3.102,19.805 3.102,18.949L3.102,5.051Z" style="fill:url(#_Linear3);"/>
    <path d="M24,5.051C24,4.195 23.305,3.5 22.449,3.5C21.593,3.5 20.898,4.195 20.898,5.051L20.898,18.949C20.898,19.805 21.593,20.5 22.449,20.5C23.305,20.5 24,19.805 24,18.949L24,5.051Z" style="fill:url(#_Linear4);"/>
    <path d="M10.068,6.936C10.068,6.08 9.373,5.385 8.517,5.385C7.661,5.385 6.966,6.08 6.966,6.936L6.966,17.064C6.966,17.92 7.661,18.615 8.517,18.615C9.373,18.615 10.068,17.92 10.068,17.064L10.068,6.936Z" style="fill:url(#_Linear5);"/>
    <path d="M17.415,7.301C17.415,6.445 18.11,5.75 18.966,5.75C19.822,5.75 20.517,6.445 20.517,7.301L20.517,16.699C20.517,17.555 19.822,18.25 18.966,18.25C18.11,18.25 17.415,17.555 17.415,16.699L17.415,7.301Z" style="fill:url(#_Linear6);"/>
    <path d="M6.585,8.551C6.585,7.695 5.89,7 5.034,7C4.178,7 3.483,7.695 3.483,8.551L3.483,15.449C3.483,16.305 4.178,17 5.034,17C5.89,17 6.585,16.305 6.585,15.449L6.585,8.551Z" style="fill:url(#_Linear7);"/>
    <defs>
        <linearGradient id="_Linear1" x1="0" y1="0" x2="1" y2="0" gradientUnits="userSpaceOnUse" gradientTransform="matrix(24,0,0,24,0,12)"><stop offset="0" style="stop-color:rgb(0,164,133);stop-opacity:1"/><stop offset="0.51" style="stop-color:rgb(171,109,255);stop-opacity:1"/><stop offset="1" style="stop-color:rgb(246,93,90);stop-opacity:1"/></linearGradient>
        <linearGradient id="_Linear2" x1="0" y1="0" x2="1" y2="0" gradientUnits="userSpaceOnUse" gradientTransform="matrix(24,0,0,24,0,12)"><stop offset="0" style="stop-color:rgb(0,164,133);stop-opacity:1"/><stop offset="0.51" style="stop-color:rgb(171,109,255);stop-opacity:1"/><stop offset="1" style="stop-color:rgb(246,93,90);stop-opacity:1"/></linearGradient>
        <linearGradient id="_Linear3" x1="0" y1="0" x2="1" y2="0" gradientUnits="userSpaceOnUse" gradientTransform="matrix(24,0,0,24,0,12)"><stop offset="0" style="stop-color:rgb(0,164,133);stop-opacity:1"/><stop offset="0.14" style="stop-color:rgb(46,149,166);stop-opacity:1"/><stop offset="0.28" style="stop-color:rgb(96,133,201);stop-opacity:1"/><stop offset="0.43" style="stop-color:rgb(144,118,236);stop-opacity:1"/><stop offset="0.51" style="stop-color:rgb(171,109,255);stop-opacity:1"/><stop offset="0.57" style="stop-color:rgb(181,107,233);stop-opacity:1"/><stop offset="0.72" style="stop-color:rgb(203,102,184);stop-opacity:1"/><stop offset="1" style="stop-color:rgb(246,93,90);stop-opacity:1"/></linearGradient>
        <linearGradient id="_Linear4" x1="0" y1="0" x2="1" y2="0" gradientUnits="userSpaceOnUse" gradientTransform="matrix(24,0,0,24,0,12)"><stop offset="0" style="stop-color:rgb(0,164,133);stop-opacity:1"/><stop offset="0.51" style="stop-color:rgb(171,109,255);stop-opacity:1"/><stop offset="1" style="stop-color:rgb(246,93,90);stop-opacity:1"/></linearGradient>
        <linearGradient id="_Linear5" x1="0" y1="0" x2="1" y2="0" gradientUnits="userSpaceOnUse" gradientTransform="matrix(24,0,0,24,0,12)"><stop offset="0" style="stop-color:rgb(0,164,133);stop-opacity:1"/><stop offset="0.51" style="stop-color:rgb(171,109,255);stop-opacity:1"/><stop offset="1" style="stop-color:rgb(246,93,90);stop-opacity:1"/></linearGradient>
        <linearGradient id="_Linear6" x1="0" y1="0" x2="1" y2="0" gradientUnits="userSpaceOnUse" gradientTransform="matrix(24,0,0,24,0,12)"><stop offset="0" style="stop-color:rgb(0,164,133);stop-opacity:1"/><stop offset="0.51" style="stop-color:rgb(171,109,255);stop-opacity:1"/><stop offset="1" style="stop-color:rgb(246,93,90);stop-opacity:1"/></linearGradient>
        <linearGradient id="_Linear7" x1="0" y1="0" x2="1" y2="0" gradientUnits="userSpaceOnUse" gradientTransform="matrix(24,0,0,24,0,12)"><stop offset="0" style="stop-color:rgb(0,164,133);stop-opacity:1"/><stop offset="0.51" style="stop-color:rgb(171,109,255);stop-opacity:1"/><stop offset="1" style="stop-color:rgb(246,93,90);stop-opacity:1"/></linearGradient>
    </defs>
</svg>
