<?xml version="1.0" encoding="UTF-8" standalone="no"?>
<!DOCTYPE svg PUBLIC "-//W3C//DTD SVG 1.1//EN" "http://www.w3.org/Graphics/SVG/1.1/DTD/svg11.dtd">
<svg width="100%" height="100%" viewBox="0 0 24 24" version="1.1" xmlns="http://www.w3.org/2000/svg" xmlns:xlink="http://www.w3.org/1999/xlink" xml:space="preserve" xmlns:serif="http://www.serif.com/" style="fill-rule:evenodd;clip-rule:evenodd;stroke-linejoin:round;stroke-miterlimit:2;">
    <path d="M6.95,0.45C6.95,0.202 6.748,-0 6.5,-0C6.252,-0 6.05,0.202 6.05,0.45L6.05,23.55C6.05,23.798 6.252,24 6.5,24C6.748,24 6.95,23.798 6.95,23.55L6.95,0.45ZM5.95,2.45C5.95,2.202 5.748,2 5.5,2C5.252,2 5.05,2.202 5.05,2.45L5.05,21.55C5.05,21.798 5.252,22 5.5,22C5.748,22 5.95,21.798 5.95,21.55L5.95,2.45ZM19.95,3.45C19.95,3.202 19.748,3 19.5,3C19.252,3 19.05,3.202 19.05,3.45L19.05,20.55C19.05,20.798 19.252,21 19.5,21C19.748,21 19.95,20.798 19.95,20.55L19.95,3.45ZM7.95,3.95C7.95,3.702 7.748,3.5 7.5,3.5C7.252,3.5 7.05,3.702 7.05,3.95L7.05,20.05C7.05,20.298 7.252,20.5 7.5,20.5C7.748,20.5 7.95,20.298 7.95,20.05L7.95,3.95ZM4.95,5.45C4.95,5.202 4.748,5 4.5,5C4.252,5 4.05,5.202 4.05,5.45L4.05,18.55C4.05,18.798 4.252,19 4.5,19C4.748,19 4.95,18.798 4.95,18.55L4.95,5.45ZM18.95,6.45C18.95,6.202 18.748,6 18.5,6C18.252,6 18.05,6.202 18.05,6.45L18.05,17.55C18.05,17.798 18.252,18 18.5,18C18.748,18 18.95,17.798 18.95,17.55L18.95,6.45ZM20.95,6.45C20.95,6.202 20.748,6 20.5,6C20.252,6 20.05,6.202 20.05,6.45L20.05,17.55C20.05,17.798 20.252,18 20.5,18C20.748,18 20.95,17.798 20.95,17.55L20.95,6.45ZM8.05,7.45C8.05,7.202 8.252,7 8.5,7C8.748,7 8.95,7.202 8.95,7.45L8.95,16.55C8.95,16.798 8.748,17 8.5,17C8.252,17 8.05,16.798 8.05,16.55L8.05,7.45ZM3.95,7.95C3.95,7.702 3.748,7.5 3.5,7.5C3.252,7.5 3.05,7.702 3.05,7.95L3.05,16.05C3.05,16.298 3.252,16.5 3.5,16.5C3.748,16.5 3.95,16.298 3.95,16.05L3.95,7.95ZM17.95,9.45C17.95,9.202 17.748,9 17.5,9C17.252,9 17.05,9.202 17.05,9.45L17.05,14.55C17.05,14.798 17.252,15 17.5,15C17.748,15 17.95,14.798 17.95,14.55L17.95,9.45ZM21.95,9.45C21.95,9.202 21.748,9 21.5,9C21.252,9 21.05,9.202 21.05,9.45L21.05,14.55C21.05,14.798 21.252,15 21.5,15C21.748,15 21.95,14.798 21.95,14.55L21.95,9.45ZM13.95,9.45C13.95,9.202 13.748,9 13.5,9C13.252,9 13.05,9.202 13.05,9.45L13.05,14.55C13.05,14.798 13.252,15 13.5,15C13.748,15 13.95,14.798 13.95,14.55L13.95,9.45ZM9.05,9.95C9.05,9.702 9.252,9.5 9.5,9.5C9.748,9.5 9.95,9.702 9.95,9.95L9.95,14.05C9.95,14.298 9.748,14.5 9.5,14.5C9.252,14.5 9.05,14.298 9.05,14.05L9.05,9.95ZM2.95,10.45C2.95,10.202 2.748,10 2.5,10C2.252,10 2.05,10.202 2.05,10.45L2.05,13.55C2.05,13.798 2.252,14 2.5,14C2.748,14 2.95,13.798 2.95,13.55L2.95,10.45ZM16.95,11.45C16.95,11.202 16.748,11 16.5,11C16.252,11 16.05,11.202 16.05,11.45L16.05,12.55C16.05,12.798 16.252,13 16.5,13C16.748,13 16.95,12.798 16.95,12.55L16.95,11.45ZM22.95,11.45C22.95,11.202 22.748,11 22.5,11C22.252,11 22.05,11.202 22.05,11.45L22.05,12.55C22.05,12.798 22.252,13 22.5,13C22.748,13 22.95,12.798 22.95,12.55L22.95,11.45ZM1.95,11.45C1.95,11.202 1.748,11 1.5,11C1.252,11 1.05,11.202 1.05,11.45L1.05,12.55C1.05,12.798 1.252,13 1.5,13C1.748,13 1.95,12.798 1.95,12.55L1.95,11.45ZM12.05,11.45C12.05,11.202 12.252,11 12.5,11C12.748,11 12.95,11.202 12.95,11.45L12.95,12.55C12.95,12.798 12.748,13 12.5,13C12.252,13 12.05,12.798 12.05,12.55L12.05,11.45ZM10.05,11.45C10.05,11.202 10.252,11 10.5,11C10.748,11 10.95,11.202 10.95,11.45L10.95,12.55C10.95,12.798 10.748,13 10.5,13C10.252,13 10.05,12.798 10.05,12.55L10.05,11.45ZM14.95,11.45C14.95,11.202 14.748,11 14.5,11C14.252,11 14.05,11.202 14.05,11.45L14.05,12.55C14.05,12.798 14.252,13 14.5,13C14.748,13 14.95,12.798 14.95,12.55L14.95,11.45ZM23.95,12C23.95,11.752 23.748,11.55 23.5,11.55C23.252,11.55 23.05,11.752 23.05,12C23.05,12.248 23.252,12.45 23.5,12.45C23.748,12.45 23.95,12.248 23.95,12ZM0.95,12C0.95,11.752 0.748,11.55 0.5,11.55C0.252,11.55 0.05,11.752 0.05,12C0.05,12.248 0.252,12.45 0.5,12.45C0.748,12.45 0.95,12.248 0.95,12ZM11.05,12C11.05,11.752 11.252,11.55 11.5,11.55C11.748,11.55 11.95,11.752 11.95,12C11.95,12.248 11.748,12.45 11.5,12.45C11.252,12.45 11.05,12.248 11.05,12ZM15.95,12C15.95,11.752 15.748,11.55 15.5,11.55C15.252,11.55 15.05,11.752 15.05,12C15.05,12.248 15.252,12.45 15.5,12.45C15.748,12.45 15.95,12.248 15.95,12Z" style="fill:url(#_Linear1);"/>
    <defs>
        <linearGradient id="_Linear1" x1="0" y1="0" x2="1" y2="0" gradientUnits="userSpaceOnUse" gradientTransform="matrix(23.95,0,0,23.95,0.05,12)"><stop offset="0" style="stop-color:rgb(0,164,133);stop-opacity:1"/><stop offset="0.51" style="stop-color:rgb(171,109,255);stop-opacity:1"/><stop offset="1" style="stop-color:rgb(246,93,90);stop-opacity:1"/></linearGradient>
    </defs>
</svg>
